<svg width="161" height="150" viewBox="0 0 161 150" fill="none" xmlns="http://www.w3.org/2000/svg">
<path d="M45.5 9.21771C63.5 -17.5823 83.3334 20.3844 91 42.7177C103 26.2177 118.5 17.2177 135 32.2177C148.2 44.2177 129.5 62.551 118.5 70.2177C138.5 56.7177 165.5 83.7177 159.5 106.218C154.7 124.218 116.833 113.718 98.5 106.218C108.167 115.384 120.2 136.418 91 147.218C61.8 158.018 53.8333 125.384 53.5 107.718C41.5 116.718 0 110.718 0 83.7177C0 62.1177 30.3333 58.3844 45.5 59.2177C38 53.7177 27.5 36.0177 45.5 9.21771Z" fill="url(#paint0_radial_235_178)"/>
<defs>
<radialGradient id="paint0_radial_235_178" cx="0" cy="0" r="1" gradientUnits="userSpaceOnUse" gradientTransform="translate(80.1755 74.6805) rotate(90) scale(74.6805 80.1755)">
<stop stop-color="#E63F3F"/>
<stop offset="1" stop-color="#E5AEAE"/>
</radialGradient>
</defs>
</svg>
